HIERARCHY
ROOT SpineBase
{
  OFFSET 0.000000 0.000000 0.000000
  CHANNELS 6 Xposition Yposition Zposition Zrotation Xrotation Yrotation
  JOINT SpineMid
  {
    OFFSET -0.000000 31.543440 0.000000
    CHANNELS 3 Zrotation Xrotation Yrotation
    JOINT SpineShoulder
    {
      OFFSET 0.070914 23.425633 -0.757229
      CHANNELS 3 Zrotation Xrotation Yrotation
      JOINT Neck
      {
        OFFSET 0.046110 7.743116 -0.576026
        CHANNELS 3 Zrotation Xrotation Yrotation
        JOINT Head
        {
          OFFSET 3.361260 13.429790 1.739307
          CHANNELS 3 Zrotation Xrotation Yrotation
          End Site
          {
            OFFSET 0 0 0
          }
        }
      }
      JOINT ShoulderLeft
      {
        OFFSET -13.682336 -2.137962 -9.854689
        CHANNELS 3 Zrotation Xrotation Yrotation
        JOINT ElbowLeft
        {
          OFFSET -5.949432 -24.567318 -3.272229
          CHANNELS 3 Zrotation Xrotation Yrotation
          JOINT WristLeft
          {
            OFFSET 3.935492 -22.154067 -4.383598
            CHANNELS 3 Zrotation Xrotation Yrotation
            JOINT HandLeft
            {
              OFFSET 2.495698 -0.449226 2.222874
              CHANNELS 3 Zrotation Xrotation Yrotation
              JOINT HandTipLeft
              {
                OFFSET 4.191150 -7.388144 -2.216059
                CHANNELS 3 Zrotation Xrotation Yrotation
                End Site
                {
                  OFFSET 0 0 0
                }
              }
              JOINT ThumbLeft
              {
                OFFSET -6.328732 -1.751547 1.868547
                CHANNELS 3 Zrotation Xrotation Yrotation
                End Site
                {
                  OFFSET 0 0 0
                }
              }
            }
          }
        }
      }
      JOINT ShoulderRight
      {
        OFFSET 15.151930 -4.835119 8.379704
        CHANNELS 3 Zrotation Xrotation Yrotation
        JOINT ElbowRight
        {
          OFFSET 2.883606 -27.589192 5.436951
          CHANNELS 3 Zrotation Xrotation Yrotation
          JOINT WristRight
          {
            OFFSET 0.399095 -22.092310 -6.348639
            CHANNELS 3 Zrotation Xrotation Yrotation
            JOINT HandRight
            {
              OFFSET -2.186609 -5.186997 -2.917456
              CHANNELS 3 Zrotation Xrotation Yrotation
              JOINT HandTipRight
              {
                OFFSET -1.035307 -4.844654 -2.181208
                CHANNELS 3 Zrotation Xrotation Yrotation
                End Site
                {
                  OFFSET 0 0 0
                }
              }
              JOINT ThumbRight
              {
                OFFSET -2.004144 1.103025 -3.997519
                CHANNELS 3 Zrotation Xrotation Yrotation
                End Site
                {
                  OFFSET 0 0 0
                }
              }
            }
          }
        }
      }
    }
  }
  JOINT HipLeft
  {
    OFFSET -6.194999 1.273771 -6.996213
    CHANNELS 3 Zrotation Xrotation Yrotation
    JOINT KneeLeft
    {
      OFFSET -8.717290 -34.317238 -0.457431
      CHANNELS 3 Zrotation Xrotation Yrotation
      JOINT AnkleLeft
      {
        OFFSET -6.504775 -32.609533 10.403475
        CHANNELS 3 Zrotation Xrotation Yrotation
        JOINT FootLeft
        {
          OFFSET 6.733034 -3.321349 -12.919307
          CHANNELS 3 Zrotation Xrotation Yrotation
          End Site
          {
            OFFSET 0 0 0
          }
        }
      }
    }
  }
  JOINT HipRight
  {
    OFFSET 6.824061 0.055248 -0.160488
    CHANNELS 3 Zrotation Xrotation Yrotation
    JOINT KneeRight
    {
      OFFSET -3.691218 -34.758605 4.889110
      CHANNELS 3 Zrotation Xrotation Yrotation
      JOINT AnkleRight
      {
        OFFSET -5.167671 -34.793448 11.029596
        CHANNELS 3 Zrotation Xrotation Yrotation
        JOINT FootRight
        {
          OFFSET 5.744016 -3.785990 -12.118948
          CHANNELS 3 Zrotation Xrotation Yrotation
          End Site
          {
            OFFSET 0 0 0
          }
        }
      }
    }
  }
}
MOTION
Frames: 7
Frame Time: 0.033333
-34.914814 79.726784 387.934063 5.912133 15.336823 -26.172069 -0.588316 1.151983 25.446854 0.223351 0.947759 0.190832 0.532442 8.725397 -8.200383 0.000000 0.000000 0.000000 -12.275487 41.228971 -13.226476 12.571005 0.685560 28.106704 -71.648567 -24.308718 64.134963 6.379372 -33.368855 -90.229554 0.000000 0.000000 0.000000 0.000000 0.000000 0.000000 -8.423941 42.970023 6.334180 29.262067 -7.310585 4.100106 15.813311 -7.638468 -25.314722 -23.742052 -1.234674 9.903448 0.000000 0.000000 0.000000 0.000000 0.000000 0.000000 5.909699 -11.918924 26.069426 -8.287032 -9.515318 0.921493 -1.494844 -1.150188 -3.641716 0.000000 0.000000 0.000000 4.345427 -7.613714 26.391500 -7.227834 1.658033 -2.134986 1.986886 -10.687300 -5.078292 0.000000 0.000000 0.000000
-35.985814 79.531703 390.718667 5.864086 13.350816 -28.270306 -0.787074 0.918228 27.632485 0.239599 1.133618 0.176324 0.330775 9.522193 -7.890801 0.000000 0.000000 0.000000 -9.130725 48.559096 -15.382244 13.422742 -0.468408 31.055652 -58.627947 -34.750650 72.758932 23.906992 -31.051767 -79.157347 0.000000 0.000000 0.000000 0.000000 0.000000 0.000000 -7.616697 45.350287 6.670985 28.338841 -10.315051 4.212925 21.721433 -7.686138 -25.378844 -30.475368 0.058549 8.686111 0.000000 0.000000 0.000000 0.000000 0.000000 0.000000 7.201895 -13.086797 29.501449 -7.876301 -6.356429 0.613440 -5.740380 -6.796267 -2.439322 0.000000 0.000000 0.000000 4.427162 -3.479454 28.515741 -8.033764 4.019865 -2.738792 0.238434 -17.942657 -7.082137 0.000000 0.000000 0.000000
-37.031544 79.436582 393.370692 5.646411 11.485899 -31.226376 -0.855502 0.691869 30.704778 0.239014 1.269418 0.160317 -0.645865 9.252302 -7.156646 0.000000 0.000000 0.000000 -4.574708 50.322150 -17.258082 14.952062 0.049447 31.505977 -50.203686 -37.294072 77.741310 33.332575 -39.231781 -72.156935 0.000000 0.000000 0.000000 0.000000 0.000000 0.000000 -7.248526 47.373945 6.964093 25.590021 -16.194241 4.296063 23.514494 -5.930029 -25.467084 -32.155166 1.726285 8.431878 0.000000 0.000000 0.000000 0.000000 0.000000 0.000000 8.713946 -13.993041 33.746405 -6.979062 -2.579772 0.168973 -6.462575 -7.138073 -2.783822 0.000000 0.000000 0.000000 4.770442 0.967132 31.557404 -9.350400 4.908653 -3.294065 -2.072731 -24.448195 -10.096352 0.000000 0.000000 0.000000
-38.163347 79.306019 395.964828 5.133735 9.558419 -31.993431 -0.818132 0.599344 31.615068 0.216899 1.313240 0.140717 -0.668398 9.770134 -6.655554 0.000000 0.000000 0.000000 0.263160 48.436457 -18.201522 15.879594 1.662788 29.741851 -47.638482 -35.799091 76.531339 35.057711 -42.945390 -68.870717 0.000000 0.000000 0.000000 0.000000 0.000000 0.000000 -7.267329 49.176054 7.340999 24.619900 -17.484020 4.202848 25.876141 -4.359304 -26.763220 -33.936161 1.558624 8.151178 0.000000 0.000000 0.000000 0.000000 0.000000 0.000000 9.611664 -13.896736 35.346554 -6.256162 1.538491 -0.415291 -7.664043 -9.605709 -2.113667 0.000000 0.000000 0.000000 5.513729 5.584819 32.453564 -11.775933 3.721173 -3.868496 -5.786883 -30.682869 -13.449476 0.000000 0.000000 0.000000
-39.103542 79.215194 398.249224 4.598713 7.942325 -32.629769 -0.673940 0.471721 32.372235 0.195017 1.248476 0.128171 -1.457728 9.925412 -5.978845 0.000000 0.000000 0.000000 2.671547 44.227354 -17.201800 20.315906 2.499019 27.178934 -52.244437 -29.351448 71.233061 23.031242 -47.821270 -74.472869 0.000000 0.000000 0.000000 0.000000 0.000000 0.000000 -7.888876 50.533268 7.773148 25.180826 -17.173222 4.557346 26.262933 -3.913125 -27.170488 -33.857764 2.979094 7.671144 0.000000 0.000000 0.000000 0.000000 0.000000 0.000000 10.032815 -13.027929 36.297178 -5.784569 5.314041 -1.045747 -13.707300 -21.740101 1.817553 0.000000 0.000000 0.000000 6.449598 10.525778 33.084843 -14.867863 -0.365607 -4.248008 -10.987643 -34.915617 -15.036497 0.000000 0.000000 0.000000
-39.905439 79.215938 400.031287 3.941036 6.887958 -33.141311 -0.465821 0.295704 32.971444 0.096615 1.046165 0.107214 -2.529378 10.262011 -5.316017 0.000000 0.000000 0.000000 2.364942 36.407336 -13.792816 24.360561 2.913522 22.072877 -59.410056 -19.389698 59.288430 15.671789 -48.227415 -70.992832 0.000000 0.000000 0.000000 0.000000 0.000000 0.000000 -8.927708 51.189607 8.313346 26.899547 -15.323960 5.200434 25.702879 -4.450822 -26.868177 -34.245811 3.080466 7.566419 0.000000 0.000000 0.000000 0.000000 0.000000 0.000000 10.065379 -11.378823 36.571172 -5.711499 8.325854 -1.604426 -17.873469 -31.789524 2.784302 0.000000 0.000000 0.000000 8.122050 13.281332 33.696133 -17.701960 -4.422145 -4.353586 -20.869323 -42.004108 -20.579348 0.000000 0.000000 0.000000
-40.320716 79.231529 401.985031 3.509992 5.740129 -33.690309 -0.298351 0.345650 33.591150 0.090930 0.813525 0.109160 -5.592969 10.632253 -4.434881 0.000000 0.000000 0.000000 -0.165166 29.112522 -10.226967 30.062762 0.710439 17.278747 -67.465359 -7.640971 52.450018 16.844976 -46.966592 -59.352171 0.000000 0.000000 0.000000 0.000000 0.000000 0.000000 -10.870685 51.391717 8.857648 29.262394 -13.222868 6.103334 25.855654 -3.991894 -27.699892 -32.674184 5.341092 6.819613 0.000000 0.000000 0.000000 0.000000 0.000000 0.000000 8.898224 -8.554557 36.229351 -5.918335 6.469036 -1.214391 -20.646622 -36.627136 3.963970 0.000000 0.000000 0.000000 8.905083 14.717978 34.251675 -19.381969 -8.371371 -4.083223 -20.036294 -38.109170 -16.667928 0.000000 0.000000 0.000000
